<svg width="1440" height="80" viewBox="0 0 1440 80" fill="none" xmlns="http://www.w3.org/2000/svg">
<rect opacity="0.5" width="1440" height="80" fill="#121414"/>
<path d="M172.5 51H167.969V34.0938H172.5V51ZM167.703 29.7188C167.703 29.0417 167.927 28.4844 168.375 28.0469C168.833 27.6094 169.453 27.3906 170.234 27.3906C171.005 27.3906 171.62 27.6094 172.078 28.0469C172.536 28.4844 172.766 29.0417 172.766 29.7188C172.766 30.4062 172.531 30.9688 172.062 31.4062C171.604 31.8438 170.995 32.0625 170.234 32.0625C169.474 32.0625 168.859 31.8438 168.391 31.4062C167.932 30.9688 167.703 30.4062 167.703 29.7188Z" fill="#E1E1E6"/>
<path d="M175.578 42.4219C175.578 39.8281 176.193 37.7396 177.422 36.1562C178.661 34.5729 180.328 33.7812 182.422 33.7812C184.276 33.7812 185.719 34.4167 186.75 35.6875L186.938 34.0938H191.031V50.4375C191.031 51.9167 190.693 53.2031 190.016 54.2969C189.349 55.3906 188.406 56.224 187.188 56.7969C185.969 57.3698 184.542 57.6562 182.906 57.6562C181.667 57.6562 180.458 57.4062 179.281 56.9062C178.104 56.4167 177.214 55.7812 176.609 55L178.609 52.25C179.734 53.5104 181.099 54.1406 182.703 54.1406C183.901 54.1406 184.833 53.8177 185.5 53.1719C186.167 52.5365 186.5 51.6302 186.5 50.4531V49.5469C185.458 50.724 184.089 51.3125 182.391 51.3125C180.359 51.3125 178.714 50.5208 177.453 48.9375C176.203 47.3438 175.578 45.2344 175.578 42.6094V42.4219ZM180.094 42.75C180.094 44.2812 180.401 45.4844 181.016 46.3594C181.63 47.224 182.474 47.6562 183.547 47.6562C184.922 47.6562 185.906 47.1406 186.5 46.1094V39C185.896 37.9688 184.922 37.4531 183.578 37.4531C182.495 37.4531 181.641 37.8958 181.016 38.7812C180.401 39.6667 180.094 40.9896 180.094 42.75Z" fill="#E1E1E6"/>
<path d="M194.75 48.7812C194.75 48.0625 194.99 47.4792 195.469 47.0312C195.958 46.5833 196.568 46.3594 197.297 46.3594C198.036 46.3594 198.646 46.5833 199.125 47.0312C199.615 47.4792 199.859 48.0625 199.859 48.7812C199.859 49.4896 199.62 50.0677 199.141 50.5156C198.661 50.9531 198.047 51.1719 197.297 51.1719C196.557 51.1719 195.948 50.9531 195.469 50.5156C194.99 50.0677 194.75 49.4896 194.75 48.7812Z" fill="#E1E1E6"/>
<path d="M207.984 34.0938L208.125 36.0469C209.333 34.5365 210.953 33.7812 212.984 33.7812C214.776 33.7812 216.109 34.3073 216.984 35.3594C217.859 36.4115 218.307 37.9844 218.328 40.0781V51H213.812V40.1875C213.812 39.2292 213.604 38.5365 213.188 38.1094C212.771 37.6719 212.078 37.4531 211.109 37.4531C209.839 37.4531 208.885 37.9948 208.25 39.0781V51H203.734V34.0938H207.984Z" fill="#E1E1E6"/>
<path d="M229.547 51.3125C227.068 51.3125 225.047 50.5521 223.484 49.0312C221.932 47.5104 221.156 45.4844 221.156 42.9531V42.5156C221.156 40.8177 221.484 39.3021 222.141 37.9688C222.797 36.625 223.724 35.5938 224.922 34.875C226.13 34.1458 227.505 33.7812 229.047 33.7812C231.359 33.7812 233.177 34.5104 234.5 35.9688C235.833 37.4271 236.5 39.4948 236.5 42.1719V44.0156H225.734C225.88 45.1198 226.318 46.0052 227.047 46.6719C227.786 47.3385 228.719 47.6719 229.844 47.6719C231.583 47.6719 232.943 47.0417 233.922 45.7812L236.141 48.2656C235.464 49.224 234.547 49.974 233.391 50.5156C232.234 51.0469 230.953 51.3125 229.547 51.3125ZM229.031 37.4375C228.135 37.4375 227.406 37.7396 226.844 38.3438C226.292 38.9479 225.938 39.8125 225.781 40.9375H232.062V40.5781C232.042 39.5781 231.771 38.8073 231.25 38.2656C230.729 37.7135 229.99 37.4375 229.031 37.4375Z" fill="#E1E1E6"/>
<path d="M253.781 44.8594L256 34.0938H260.359L256.047 51H252.266L249.062 40.3594L245.859 51H242.094L237.781 34.0938H242.141L244.344 44.8438L247.438 34.0938H250.703L253.781 44.8594Z" fill="#E1E1E6"/>
<path d="M271.766 46.3281C271.766 45.776 271.49 45.3438 270.938 45.0312C270.396 44.7083 269.521 44.4219 268.312 44.1719C264.292 43.3281 262.281 41.6198 262.281 39.0469C262.281 37.5469 262.901 36.2969 264.141 35.2969C265.391 34.2865 267.021 33.7812 269.031 33.7812C271.177 33.7812 272.891 34.2865 274.172 35.2969C275.464 36.3073 276.109 37.6198 276.109 39.2344H271.594C271.594 38.5885 271.385 38.0573 270.969 37.6406C270.552 37.2135 269.901 37 269.016 37C268.255 37 267.667 37.1719 267.25 37.5156C266.833 37.8594 266.625 38.2969 266.625 38.8281C266.625 39.3281 266.859 39.7344 267.328 40.0469C267.807 40.349 268.609 40.6146 269.734 40.8438C270.859 41.0625 271.807 41.3125 272.578 41.5938C274.964 42.4688 276.156 43.9844 276.156 46.1406C276.156 47.6823 275.495 48.9323 274.172 49.8906C272.849 50.8385 271.141 51.3125 269.047 51.3125C267.63 51.3125 266.37 51.0625 265.266 50.5625C264.172 50.0521 263.312 49.3594 262.688 48.4844C262.062 47.599 261.75 46.6458 261.75 45.625H266.031C266.073 46.4271 266.37 47.0417 266.922 47.4688C267.474 47.8958 268.214 48.1094 269.141 48.1094C270.005 48.1094 270.656 47.9479 271.094 47.625C271.542 47.2917 271.766 46.8594 271.766 46.3281Z" fill="#E1E1E6"/>
<rect x="1056" y="16" width="218" height="48" rx="24" fill="#1F2729"/>
<path d="M1118.91 43.0156C1118.91 42.5729 1118.76 42.2344 1118.45 42C1118.13 41.7604 1117.57 41.5104 1116.76 41.25C1115.95 40.9844 1115.3 40.724 1114.83 40.4688C1113.54 39.7708 1112.89 38.8307 1112.89 37.6484C1112.89 37.0339 1113.06 36.487 1113.41 36.0078C1113.76 35.5234 1114.25 35.1458 1114.9 34.875C1115.55 34.6042 1116.28 34.4688 1117.09 34.4688C1117.9 34.4688 1118.62 34.6172 1119.26 34.9141C1119.89 35.2057 1120.39 35.6198 1120.73 36.1562C1121.09 36.6927 1121.27 37.3021 1121.27 37.9844H1118.92C1118.92 37.4635 1118.76 37.0599 1118.43 36.7734C1118.1 36.4818 1117.64 36.3359 1117.05 36.3359C1116.47 36.3359 1116.03 36.4583 1115.71 36.7031C1115.39 36.9427 1115.23 37.2604 1115.23 37.6562C1115.23 38.026 1115.42 38.3359 1115.79 38.5859C1116.16 38.8359 1116.71 39.0703 1117.44 39.2891C1118.77 39.6901 1119.74 40.1875 1120.35 40.7812C1120.96 41.375 1121.27 42.1146 1121.27 43C1121.27 43.9844 1120.89 44.7578 1120.15 45.3203C1119.4 45.8776 1118.4 46.1562 1117.14 46.1562C1116.27 46.1562 1115.47 45.9974 1114.75 45.6797C1114.03 45.3568 1113.48 44.9167 1113.1 44.3594C1112.73 43.8021 1112.54 43.1562 1112.54 42.4219H1114.89C1114.89 43.6771 1115.64 44.3047 1117.14 44.3047C1117.7 44.3047 1118.13 44.1927 1118.45 43.9688C1118.76 43.7396 1118.91 43.4219 1118.91 43.0156ZM1125.09 46H1122.83V37.5469H1125.09V46ZM1122.7 35.3594C1122.7 35.0208 1122.81 34.7422 1123.03 34.5234C1123.26 34.3047 1123.57 34.1953 1123.96 34.1953C1124.35 34.1953 1124.65 34.3047 1124.88 34.5234C1125.11 34.7422 1125.23 35.0208 1125.23 35.3594C1125.23 35.7031 1125.11 35.9844 1124.88 36.2031C1124.65 36.4219 1124.34 36.5312 1123.96 36.5312C1123.58 36.5312 1123.27 36.4219 1123.04 36.2031C1122.81 35.9844 1122.7 35.7031 1122.7 35.3594ZM1129.04 37.5469L1129.11 38.5234C1129.71 37.7682 1130.52 37.3906 1131.54 37.3906C1132.43 37.3906 1133.1 37.6536 1133.54 38.1797C1133.98 38.7057 1134.2 39.4922 1134.21 40.5391V46H1131.95V40.5938C1131.95 40.1146 1131.85 39.7682 1131.64 39.5547C1131.43 39.3359 1131.09 39.2266 1130.6 39.2266C1129.97 39.2266 1129.49 39.4974 1129.17 40.0391V46H1126.91V37.5469H1129.04ZM1135.6 41.7109C1135.6 40.4141 1135.91 39.3698 1136.52 38.5781C1137.14 37.7865 1137.98 37.3906 1139.02 37.3906C1139.95 37.3906 1140.67 37.7083 1141.19 38.3438L1141.28 37.5469H1143.33V45.7188C1143.33 46.4583 1143.16 47.1016 1142.82 47.6484C1142.49 48.1953 1142.02 48.612 1141.41 48.8984C1140.8 49.1849 1140.08 49.3281 1139.27 49.3281C1138.65 49.3281 1138.04 49.2031 1137.45 48.9531C1136.86 48.7083 1136.42 48.3906 1136.12 48L1137.12 46.625C1137.68 47.2552 1138.36 47.5703 1139.16 47.5703C1139.76 47.5703 1140.23 47.4089 1140.56 47.0859C1140.9 46.7682 1141.06 46.3151 1141.06 45.7266V45.2734C1140.54 45.862 1139.86 46.1562 1139.01 46.1562C1137.99 46.1562 1137.17 45.7604 1136.54 44.9688C1135.91 44.1719 1135.6 43.1172 1135.6 41.8047V41.7109ZM1137.86 41.875C1137.86 42.6406 1138.01 43.2422 1138.32 43.6797C1138.63 44.112 1139.05 44.3281 1139.59 44.3281C1140.27 44.3281 1140.77 44.0703 1141.06 43.5547V40C1140.76 39.4844 1140.27 39.2266 1139.6 39.2266C1139.06 39.2266 1138.63 39.4479 1138.32 39.8906C1138.01 40.3333 1137.86 40.9948 1137.86 41.875ZM1151.44 46H1149.17V37.5469H1151.44V46ZM1149.04 35.3594C1149.04 35.0208 1149.15 34.7422 1149.38 34.5234C1149.6 34.3047 1149.91 34.1953 1150.3 34.1953C1150.69 34.1953 1151 34.3047 1151.23 34.5234C1151.46 34.7422 1151.57 35.0208 1151.57 35.3594C1151.57 35.7031 1151.45 35.9844 1151.22 36.2031C1150.99 36.4219 1150.68 36.5312 1150.3 36.5312C1149.92 36.5312 1149.62 36.4219 1149.38 36.2031C1149.15 35.9844 1149.04 35.7031 1149.04 35.3594ZM1155.38 37.5469L1155.45 38.5234C1156.06 37.7682 1156.87 37.3906 1157.88 37.3906C1158.78 37.3906 1159.45 37.6536 1159.88 38.1797C1160.32 38.7057 1160.54 39.4922 1160.55 40.5391V46H1158.3V40.5938C1158.3 40.1146 1158.19 39.7682 1157.98 39.5547C1157.78 39.3359 1157.43 39.2266 1156.95 39.2266C1156.31 39.2266 1155.83 39.4974 1155.52 40.0391V46H1153.26V37.5469H1155.38ZM1173.61 42.9297L1174.72 37.5469H1176.9L1174.74 46H1172.85L1171.25 40.6797L1169.65 46H1167.77L1165.61 37.5469H1167.79L1168.89 42.9219L1170.44 37.5469H1172.07L1173.61 42.9297ZM1180.41 46H1178.14V37.5469H1180.41V46ZM1178.01 35.3594C1178.01 35.0208 1178.12 34.7422 1178.34 34.5234C1178.57 34.3047 1178.88 34.1953 1179.27 34.1953C1179.66 34.1953 1179.97 34.3047 1180.2 34.5234C1180.42 34.7422 1180.54 35.0208 1180.54 35.3594C1180.54 35.7031 1180.42 35.9844 1180.19 36.2031C1179.96 36.4219 1179.65 36.5312 1179.27 36.5312C1178.89 36.5312 1178.59 36.4219 1178.35 36.2031C1178.12 35.9844 1178.01 35.7031 1178.01 35.3594ZM1184.98 35.4688V37.5469H1186.42V39.2031H1184.98V43.4219C1184.98 43.7344 1185.04 43.9583 1185.16 44.0938C1185.28 44.2292 1185.51 44.2969 1185.84 44.2969C1186.09 44.2969 1186.32 44.2786 1186.51 44.2422V45.9531C1186.07 46.0885 1185.61 46.1562 1185.14 46.1562C1183.56 46.1562 1182.75 45.3568 1182.72 43.7578V39.2031H1181.48V37.5469H1182.72V35.4688H1184.98ZM1189.88 38.4688C1190.48 37.75 1191.23 37.3906 1192.14 37.3906C1193.97 37.3906 1194.9 38.4557 1194.93 40.5859V46H1192.67V40.6484C1192.67 40.1641 1192.57 39.8073 1192.36 39.5781C1192.15 39.3438 1191.8 39.2266 1191.32 39.2266C1190.66 39.2266 1190.18 39.4818 1189.88 39.9922V46H1187.62V34H1189.88V38.4688ZM1209.77 44.5625C1209.34 45.0677 1208.75 45.4609 1207.98 45.7422C1207.21 46.0182 1206.35 46.1562 1205.41 46.1562C1204.43 46.1562 1203.57 45.9427 1202.82 45.5156C1202.08 45.0833 1201.51 44.4583 1201.1 43.6406C1200.7 42.8229 1200.49 41.862 1200.48 40.7578V39.9844C1200.48 38.849 1200.67 37.8672 1201.05 37.0391C1201.44 36.2057 1201.99 35.5703 1202.71 35.1328C1203.43 34.6901 1204.28 34.4688 1205.25 34.4688C1206.6 34.4688 1207.65 34.7917 1208.41 35.4375C1209.17 36.0781 1209.62 37.013 1209.77 38.2422H1207.48C1207.38 37.5911 1207.15 37.1146 1206.79 36.8125C1206.43 36.5104 1205.95 36.3594 1205.32 36.3594C1204.52 36.3594 1203.92 36.6589 1203.5 37.2578C1203.08 37.8568 1202.87 38.7474 1202.87 39.9297V40.6562C1202.87 41.849 1203.09 42.75 1203.55 43.3594C1204 43.9688 1204.66 44.2734 1205.54 44.2734C1206.42 44.2734 1207.05 44.0859 1207.42 43.7109V41.75H1205.29V40.0234H1209.77V44.5625ZM1213.91 46H1211.64V37.5469H1213.91V46ZM1211.51 35.3594C1211.51 35.0208 1211.62 34.7422 1211.84 34.5234C1212.07 34.3047 1212.38 34.1953 1212.77 34.1953C1213.16 34.1953 1213.47 34.3047 1213.7 34.5234C1213.92 34.7422 1214.04 35.0208 1214.04 35.3594C1214.04 35.7031 1213.92 35.9844 1213.69 36.2031C1213.46 36.4219 1213.15 36.5312 1212.77 36.5312C1212.39 36.5312 1212.09 36.4219 1211.85 36.2031C1211.62 35.9844 1211.51 35.7031 1211.51 35.3594ZM1218.48 35.4688V37.5469H1219.92V39.2031H1218.48V43.4219C1218.48 43.7344 1218.54 43.9583 1218.66 44.0938C1218.78 44.2292 1219.01 44.2969 1219.34 44.2969C1219.59 44.2969 1219.82 44.2786 1220.01 44.2422V45.9531C1219.57 46.0885 1219.11 46.1562 1218.64 46.1562C1217.06 46.1562 1216.25 45.3568 1216.22 43.7578V39.2031H1214.98V37.5469H1216.22V35.4688H1218.48ZM1230.59 46H1228.24V41.125H1223.67V46H1221.33V34.625H1223.67V39.2344H1228.24V34.625H1230.59V46ZM1237.55 45.1406C1237 45.8177 1236.23 46.1562 1235.24 46.1562C1234.34 46.1562 1233.64 45.8958 1233.16 45.375C1232.69 44.8542 1232.45 44.0911 1232.44 43.0859V37.5469H1234.7V43.0078C1234.7 43.888 1235.1 44.3281 1235.9 44.3281C1236.66 44.3281 1237.19 44.0625 1237.48 43.5312V37.5469H1239.74V46H1237.62L1237.55 45.1406ZM1249.06 41.8516C1249.06 43.2057 1248.77 44.263 1248.2 45.0234C1247.62 45.7786 1246.81 46.1562 1245.77 46.1562C1244.86 46.1562 1244.12 45.8047 1243.58 45.1016L1243.48 46H1241.45V34H1243.7V38.3047C1244.22 37.6953 1244.91 37.3906 1245.76 37.3906C1246.79 37.3906 1247.6 37.7708 1248.18 38.5312C1248.77 39.2865 1249.06 40.3516 1249.06 41.7266V41.8516ZM1246.8 41.6875C1246.8 40.8333 1246.67 40.2109 1246.4 39.8203C1246.13 39.4245 1245.72 39.2266 1245.19 39.2266C1244.47 39.2266 1243.97 39.5208 1243.7 40.1094V43.4453C1243.98 44.0391 1244.48 44.3359 1245.2 44.3359C1245.93 44.3359 1246.41 43.9766 1246.64 43.2578C1246.75 42.9141 1246.8 42.3906 1246.8 41.6875Z" fill="#E1E1E6"/>
<path d="M1084 29C1077.92 29 1073 33.8208 1073 39.7664C1073 44.5242 1076.15 48.5589 1080.52 49.9814C1081.07 50.0828 1081.27 49.7495 1081.27 49.4637C1081.27 49.2081 1081.26 48.5306 1081.26 47.6331C1078.2 48.2823 1077.55 46.1887 1077.55 46.1887C1077.05 44.9461 1076.33 44.6137 1076.33 44.6137C1075.33 43.9463 1076.41 43.96 1076.41 43.96C1077.51 44.0349 1078.09 45.0693 1078.09 45.0693C1079.07 46.7155 1080.67 46.2398 1081.3 45.965C1081.39 45.2684 1081.68 44.7945 1081.99 44.5252C1079.55 44.2558 1076.98 43.33 1076.98 39.2049C1076.98 38.0299 1077.41 37.0694 1078.11 36.3161C1077.99 36.044 1077.62 34.9493 1078.21 33.4665C1078.21 33.4665 1079.13 33.178 1081.24 34.5704C1082.12 34.3312 1083.05 34.2125 1083.99 34.207C1084.92 34.2125 1085.86 34.3312 1086.74 34.5704C1088.83 33.178 1089.75 33.4665 1089.75 33.4665C1090.34 34.9493 1089.97 36.044 1089.86 36.3161C1090.56 37.0694 1090.98 38.0299 1090.98 39.2049C1090.98 43.341 1088.41 44.2513 1085.97 44.516C1086.35 44.8392 1086.71 45.4994 1086.71 46.5083C1086.71 47.949 1086.69 49.1067 1086.69 49.4564C1086.69 49.7386 1086.89 50.0755 1087.45 49.9677C1091.85 48.5544 1095 44.5169 1095 39.7664C1095 33.8208 1090.07 29 1084 29Z" fill="#EBA417"/>
<line y1="79.5" x2="1440" y2="79.5" stroke="#29292E"/>
<path d="M369.336 46H366.992V41.125H362.422V46H360.078V34.625H362.422V39.2344H366.992V34.625H369.336V46ZM370.891 41.6953C370.891 40.8568 371.052 40.1094 371.375 39.4531C371.698 38.7969 372.161 38.2891 372.766 37.9297C373.375 37.5703 374.081 37.3906 374.883 37.3906C376.023 37.3906 376.953 37.7396 377.672 38.4375C378.396 39.1354 378.799 40.0833 378.883 41.2812L378.898 41.8594C378.898 43.1562 378.536 44.1979 377.812 44.9844C377.089 45.7656 376.117 46.1562 374.898 46.1562C373.68 46.1562 372.706 45.7656 371.977 44.9844C371.253 44.2031 370.891 43.1406 370.891 41.7969V41.6953ZM373.148 41.8594C373.148 42.6615 373.299 43.276 373.602 43.7031C373.904 44.125 374.336 44.3359 374.898 44.3359C375.445 44.3359 375.872 44.1276 376.18 43.7109C376.487 43.2891 376.641 42.6172 376.641 41.6953C376.641 40.9089 376.487 40.2995 376.18 39.8672C375.872 39.4349 375.44 39.2188 374.883 39.2188C374.331 39.2188 373.904 39.4349 373.602 39.8672C373.299 40.2943 373.148 40.9583 373.148 41.8594ZM382.406 37.5469L382.477 38.4922C383.076 37.7578 383.885 37.3906 384.906 37.3906C385.995 37.3906 386.742 37.8203 387.148 38.6797C387.742 37.8203 388.589 37.3906 389.688 37.3906C390.604 37.3906 391.286 37.6589 391.734 38.1953C392.182 38.7266 392.406 39.5286 392.406 40.6016V46H390.141V40.6094C390.141 40.1302 390.047 39.7812 389.859 39.5625C389.672 39.3385 389.341 39.2266 388.867 39.2266C388.19 39.2266 387.721 39.5495 387.461 40.1953L387.469 46H385.211V40.6172C385.211 40.1276 385.115 39.7734 384.922 39.5547C384.729 39.3359 384.401 39.2266 383.938 39.2266C383.297 39.2266 382.833 39.4922 382.547 40.0234V46H380.289V37.5469H382.406ZM398.039 46.1562C396.799 46.1562 395.789 45.776 395.008 45.0156C394.232 44.2552 393.844 43.2422 393.844 41.9766V41.7578C393.844 40.9089 394.008 40.151 394.336 39.4844C394.664 38.8125 395.128 38.2969 395.727 37.9375C396.331 37.5729 397.018 37.3906 397.789 37.3906C398.945 37.3906 399.854 37.7552 400.516 38.4844C401.182 39.2135 401.516 40.2474 401.516 41.5859V42.5078H396.133C396.206 43.0599 396.424 43.5026 396.789 43.8359C397.159 44.1693 397.625 44.3359 398.188 44.3359C399.057 44.3359 399.737 44.0208 400.227 43.3906L401.336 44.6328C400.997 45.112 400.539 45.487 399.961 45.7578C399.383 46.0234 398.742 46.1562 398.039 46.1562ZM397.781 39.2188C397.333 39.2188 396.969 39.3698 396.688 39.6719C396.411 39.974 396.234 40.4062 396.156 40.9688H399.297V40.7891C399.286 40.2891 399.151 39.9036 398.891 39.6328C398.63 39.3568 398.26 39.2188 397.781 39.2188Z" fill="#E1E1E6"/>
<path d="M436.898 41.5469V46H435.398V34.625H439.594C440.839 34.625 441.812 34.9427 442.516 35.5781C443.224 36.2135 443.578 37.0547 443.578 38.1016C443.578 39.2057 443.232 40.0573 442.539 40.6562C441.852 41.25 440.865 41.5469 439.578 41.5469H436.898ZM436.898 40.3203H439.594C440.396 40.3203 441.01 40.1328 441.438 39.7578C441.865 39.3776 442.078 38.8307 442.078 38.1172C442.078 37.4401 441.865 36.8984 441.438 36.4922C441.01 36.0859 440.424 35.875 439.68 35.8594H436.898V40.3203ZM444.773 41.6953C444.773 40.8672 444.935 40.1224 445.258 39.4609C445.586 38.7995 446.039 38.2891 446.617 37.9297C447.201 37.5703 447.865 37.3906 448.609 37.3906C449.76 37.3906 450.69 37.7891 451.398 38.5859C452.112 39.3828 452.469 40.4427 452.469 41.7656V41.8672C452.469 42.6901 452.31 43.4297 451.992 44.0859C451.68 44.737 451.229 45.2448 450.641 45.6094C450.057 45.974 449.385 46.1562 448.625 46.1562C447.479 46.1562 446.549 45.7578 445.836 44.9609C445.128 44.1641 444.773 43.1094 444.773 41.7969V41.6953ZM446.227 41.8672C446.227 42.8047 446.443 43.5573 446.875 44.125C447.312 44.6927 447.896 44.9766 448.625 44.9766C449.359 44.9766 449.943 44.6901 450.375 44.1172C450.807 43.5391 451.023 42.7318 451.023 41.6953C451.023 40.7682 450.802 40.0182 450.359 39.4453C449.922 38.8672 449.339 38.5781 448.609 38.5781C447.896 38.5781 447.32 38.862 446.883 39.4297C446.445 39.9974 446.227 40.8099 446.227 41.8672ZM459.203 43.7578C459.203 43.3672 459.055 43.0651 458.758 42.8516C458.466 42.6328 457.953 42.4453 457.219 42.2891C456.49 42.1328 455.909 41.9453 455.477 41.7266C455.049 41.5078 454.732 41.2474 454.523 40.9453C454.32 40.6432 454.219 40.2839 454.219 39.8672C454.219 39.1745 454.51 38.5885 455.094 38.1094C455.682 37.6302 456.432 37.3906 457.344 37.3906C458.302 37.3906 459.078 37.638 459.672 38.1328C460.271 38.6276 460.57 39.2604 460.57 40.0312H459.117C459.117 39.6354 458.948 39.2943 458.609 39.0078C458.276 38.7214 457.854 38.5781 457.344 38.5781C456.818 38.5781 456.406 38.6927 456.109 38.9219C455.812 39.151 455.664 39.4505 455.664 39.8203C455.664 40.1693 455.802 40.4323 456.078 40.6094C456.354 40.7865 456.852 40.9557 457.57 41.1172C458.294 41.2786 458.88 41.4714 459.328 41.6953C459.776 41.9193 460.107 42.1901 460.32 42.5078C460.539 42.8203 460.648 43.2031 460.648 43.6562C460.648 44.4115 460.346 45.0182 459.742 45.4766C459.138 45.9297 458.354 46.1562 457.391 46.1562C456.714 46.1562 456.115 46.0365 455.594 45.7969C455.073 45.5573 454.664 45.224 454.367 44.7969C454.076 44.3646 453.93 43.8984 453.93 43.3984H455.375C455.401 43.8828 455.594 44.2682 455.953 44.5547C456.318 44.8359 456.797 44.9766 457.391 44.9766C457.938 44.9766 458.375 44.8672 458.703 44.6484C459.036 44.4245 459.203 44.1276 459.203 43.7578ZM464.492 35.5V37.5469H466.07V38.6641H464.492V43.9062C464.492 44.2448 464.562 44.5 464.703 44.6719C464.844 44.8385 465.083 44.9219 465.422 44.9219C465.589 44.9219 465.818 44.8906 466.109 44.8281V46C465.729 46.1042 465.359 46.1562 465 46.1562C464.354 46.1562 463.867 45.9609 463.539 45.5703C463.211 45.1797 463.047 44.625 463.047 43.9062V38.6641H461.508V37.5469H463.047V35.5H464.492ZM472.688 43.7578C472.688 43.3672 472.539 43.0651 472.242 42.8516C471.951 42.6328 471.438 42.4453 470.703 42.2891C469.974 42.1328 469.393 41.9453 468.961 41.7266C468.534 41.5078 468.216 41.2474 468.008 40.9453C467.805 40.6432 467.703 40.2839 467.703 39.8672C467.703 39.1745 467.995 38.5885 468.578 38.1094C469.167 37.6302 469.917 37.3906 470.828 37.3906C471.786 37.3906 472.562 37.638 473.156 38.1328C473.755 38.6276 474.055 39.2604 474.055 40.0312H472.602C472.602 39.6354 472.432 39.2943 472.094 39.0078C471.76 38.7214 471.339 38.5781 470.828 38.5781C470.302 38.5781 469.891 38.6927 469.594 38.9219C469.297 39.151 469.148 39.4505 469.148 39.8203C469.148 40.1693 469.286 40.4323 469.562 40.6094C469.839 40.7865 470.336 40.9557 471.055 41.1172C471.779 41.2786 472.365 41.4714 472.812 41.6953C473.26 41.9193 473.591 42.1901 473.805 42.5078C474.023 42.8203 474.133 43.2031 474.133 43.6562C474.133 44.4115 473.831 45.0182 473.227 45.4766C472.622 45.9297 471.839 46.1562 470.875 46.1562C470.198 46.1562 469.599 46.0365 469.078 45.7969C468.557 45.5573 468.148 45.224 467.852 44.7969C467.56 44.3646 467.414 43.8984 467.414 43.3984H468.859C468.885 43.8828 469.078 44.2682 469.438 44.5547C469.802 44.8359 470.281 44.9766 470.875 44.9766C471.422 44.9766 471.859 44.8672 472.188 44.6484C472.521 44.4245 472.688 44.1276 472.688 43.7578Z" fill="#A8A8B3"/>
<path d="M351 80C351 78.3431 352.343 77 354 77H407C408.657 77 410 78.3431 410 80H351Z" fill="#EBA417"/>
</svg>
